<svg width="127" height="135" viewBox="0 0 127 135" fill="none" xmlns="http://www.w3.org/2000/svg">
<path d="M55.1393 2.07269C49.998 5.28363 48.7127 12.6688 52.1402 19.1977L53.7468 22.3016L48.8198 24.6563C46.1421 25.9407 40.4653 30.436 36.0738 34.7172C29.433 41.2461 28.0406 43.1727 26.4339 48.5242C23.7562 57.7289 25.7913 65.7563 33.7174 76.8875C36.9307 81.3828 37.0378 81.5969 35.6454 86.5203C32.325 98.1868 33.2889 101.184 41.1079 102.361C43.3572 102.789 45.1781 103.431 45.1781 103.752C45.1781 105.465 34.6814 107.07 24.1846 107.07C11.1173 107.07 8.43957 108.034 3.61965 114.67L0.299255 119.165L4.47652 125.373C6.83293 128.798 9.83199 132.33 11.0102 133.186C13.0453 134.577 13.5808 134.577 15.8301 133.079C17.3296 132.116 24.6131 130.617 32.6463 129.547C49.8909 127.192 54.3895 126.015 59.5307 122.59L63.6009 119.807L67.0284 122.055C73.1336 125.801 79.5602 127.513 94.7697 129.547C104.945 130.831 110.193 132.009 111.586 133.293C113.085 134.684 114.049 134.791 115.763 133.935C117.798 132.758 126.581 120.984 126.581 119.272C126.581 117.666 120.797 111.031 117.584 109.104C114.906 107.498 112.229 107.07 103.338 107.07C92.5204 107.07 81.5953 105.358 81.5953 103.645C81.5953 103.217 82.7735 102.789 84.273 102.789C88.0218 102.789 93.056 100.006 93.8058 97.6516C94.1271 96.6883 93.4844 92.5141 92.3062 88.4469L90.2711 81.1688L94.4484 75.068C104.838 59.7625 104.195 47.561 92.1991 35.4664C87.7005 30.9711 78.8104 24.6563 74.9545 23.2649C73.3479 22.7297 73.455 22.3016 75.3829 18.3414C78.1678 12.7758 77.3109 7.31721 73.0265 3.03596C70.4559 0.467224 69.1706 0.039093 64.2436 0.039093C60.4947 0.039093 57.3886 0.788315 55.1393 2.07269ZM67.0284 9.24378C69.0635 11.1703 69.1706 12.2407 67.6711 15.1305C65.5289 19.0907 59.1023 17.0571 59.1023 12.3477C59.1023 7.85237 63.8151 6.03284 67.0284 9.24378ZM66.8142 41.9953C66.4929 45.9555 66.4929 46.0625 70.2417 46.0625C73.8834 46.0625 74.0976 46.2766 74.0976 49.7016C74.0976 53.1266 73.7763 53.4477 70.6701 53.7688C67.3497 54.0899 67.1355 54.411 67.1355 58.1571C67.1355 61.9032 66.9213 62.1172 63.708 62.1172C60.2805 62.1172 60.1734 61.9032 60.1734 57.836C60.1734 53.8758 59.9592 53.5547 57.0672 53.5547C54.4966 53.5547 53.9611 53.0196 53.5326 50.3438C52.9971 46.4907 53.2113 46.0625 57.1743 46.0625C59.9592 46.0625 60.1734 45.7414 60.1734 41.6742C60.1734 37.5 60.2805 37.393 63.708 37.7141C67.0284 38.0352 67.1355 38.2492 66.8142 41.9953ZM82.345 74.5328C82.6664 75.4961 82.345 76.6735 81.4882 77.2086C79.7744 78.386 45.7136 78.0649 44.6425 76.8875C44.2141 76.4594 44.107 75.3891 44.4283 74.4258C45.4994 71.9641 81.3811 71.9641 82.345 74.5328ZM80.9526 85.236C83.2019 86.0922 83.0948 88.4469 80.8455 89.4102C79.7744 89.8383 72.8123 90.3735 65.4218 90.6946C48.6056 91.4438 39.9297 89.1961 46.035 85.7711C47.9629 84.5938 78.1678 84.1657 80.9526 85.236Z" fill="black"/>
</svg>
