<svg width="126" height="135" viewBox="0 0 126 135" fill="none" xmlns="http://www.w3.org/2000/svg">
<path d="M58.2269 0.617192C52.9786 2.22266 49.9795 6.28985 49.9795 11.7484C49.9795 14.4242 50.7293 17.7422 51.8004 19.3477C52.8715 20.9531 53.5141 22.2375 53.2999 22.3445C33.6989 32.0844 22.9879 45.8914 25.2372 58.8422C26.0941 64.0867 29.8429 71.793 33.806 76.5024L36.5908 79.9274L34.8771 86.7774C33.9131 90.5234 33.1633 94.5906 33.1633 95.768C33.1633 98.8719 35.9482 101.12 41.5179 102.511L46.552 103.795L41.1965 105.294C38.0904 106.15 31.2354 106.792 24.7017 106.685C11.9557 106.685 9.59926 107.541 3.81536 114.177L0.0665283 118.566L4.13668 124.666C6.38598 127.984 9.27793 131.623 10.5632 132.694C12.5983 134.62 12.9197 134.62 14.7405 133.015C15.9187 131.945 21.2742 130.767 30.4856 129.59C46.7662 127.556 53.5141 125.737 59.0838 122.098L63.0468 119.422L66.9028 121.67C72.5796 125.095 79.5417 126.914 94.537 129.055C102.892 130.232 109.318 131.73 111.032 132.908L113.924 134.727L118.208 129.911C120.672 127.235 123.457 123.596 124.421 121.884C126.241 118.673 126.241 118.566 123.242 114.391C118.637 108.077 114.566 106.578 102.57 106.792C91.8593 107.113 79.0061 104.759 82.9692 103.26C84.1474 102.832 86.718 101.869 88.646 101.227C94.0015 99.193 94.4299 97.2664 91.9664 88.3828L89.7171 80.5695L91.9664 77.7867C96.5721 71.9 99.7854 65.5852 100.964 60.0195C101.928 55.0961 101.82 53.2766 100.214 48.032C97.3218 38.8274 87.3607 29.5156 73.008 22.3445C72.7938 22.2375 73.3293 21.0602 74.1862 19.6688C79.5417 11.1063 75.0431 1.25938 65.189 0.082036C63.154 -0.132027 60.0478 0.082036 58.2269 0.617192ZM67.4383 9.17969C68.6165 10.357 69.5805 12.0695 69.5805 12.9258C69.5805 15.1734 65.7246 18.8125 63.3682 18.8125C60.1549 18.8125 57.5843 16.1367 57.5843 12.9258C57.5843 7.46719 63.4753 5.21954 67.4383 9.17969ZM70.1161 28.3383C76.864 31.4422 87.4678 39.7906 90.574 44.5C95.9294 52.6344 94.6441 64.5149 87.8962 68.475C81.1483 72.3281 47.4089 72.7563 39.2686 69.0102C33.2704 66.2274 30.3785 55.3102 33.806 48.1391C37.9832 39.2555 55.4421 26.3047 63.0468 26.3047C64.5464 26.3047 67.7597 27.268 70.1161 28.3383ZM83.719 80.8906L83.2905 84.6367H63.154H43.0174L42.589 80.8906L42.2676 77.1445H63.154H84.0403L83.719 80.8906ZM83.3976 91.5938C86.3967 93.0922 86.2896 95.4469 83.2905 96.1961C78.5777 97.3734 53.8354 98.3367 47.7302 97.5875C41.5179 96.7313 39.1615 94.8047 41.625 92.343C44.3027 89.6672 78.5777 88.918 83.3976 91.5938ZM70.2232 106.043C77.3995 111.18 82.8621 112.679 98.5 113.963C110.068 114.927 112.103 115.355 113.71 117.388C115.209 119.101 115.316 120.064 114.459 121.777C113.388 123.703 112.638 123.81 105.141 123.168C83.5047 121.348 70.9729 117.923 65.9388 112.465L63.3682 109.682L60.5833 112.465C56.9416 116.104 50.3008 118.994 42.2676 120.385C30.6998 122.312 14.0979 123.917 12.9197 123.168C12.277 122.847 11.7415 121.348 11.7415 119.85C11.7415 115.997 16.3472 114.498 29.95 113.749C43.9814 112.893 48.2657 111.716 55.6563 106.471C58.8696 104.223 62.2971 102.297 63.2611 102.297C64.1179 102.297 67.3312 104.009 70.2232 106.043Z" fill="white"/>
<path d="M59.7264 42.0383C59.4051 45.5703 58.9767 46.1055 56.5132 46.4266C53.8354 46.7477 53.5141 47.2828 53.5141 50.4938C53.5141 53.8117 53.7283 54.1328 56.7274 54.1328C59.7264 54.1328 59.9407 54.3469 59.9407 58.4141C59.9407 62.4813 60.1549 62.6953 63.1539 62.6953C66.153 62.6953 66.3672 62.4813 66.3672 58.5211C66.3672 54.561 66.5814 54.2399 69.9018 53.9188C72.9009 53.5977 73.3293 53.1695 73.6507 50.1727C73.972 47.0688 73.7578 46.7477 70.4374 46.4266C67.2241 46.1055 66.9028 45.7844 66.5814 42.0383C66.2601 38.5063 65.9388 38.0781 63.1539 38.0781C60.3691 38.0781 60.0478 38.5063 59.7264 42.0383Z" fill="white"/>
</svg>
