<svg width="118" height="129" viewBox="0 0 118 129" fill="none" xmlns="http://www.w3.org/2000/svg">
<path d="M54.6257 3.7485C53.5546 7.17349 53.0191 7.60162 49.6987 7.60162C46.2712 7.60162 46.057 7.81568 46.057 11.2407C46.057 14.4516 46.5925 15.3079 50.3414 17.3415C52.6978 18.7329 54.6257 20.5524 54.6257 21.4086C54.6257 22.2649 52.3764 25.3688 49.5916 28.1516C45.093 32.6469 44.5575 33.8243 44.129 39.1758C43.9148 42.3868 43.4864 45.0626 43.165 45.0626C42.9508 45.0626 41.3442 44.0993 39.7375 42.8149C32.7754 37.6774 20.1365 36.9282 11.782 41.3165C7.49762 43.5641 2.46348 49.7719 1.17816 54.3743C-1.28535 63.1508 0.21418 68.2883 9.31848 82.2024C16.0664 92.3704 17.8872 97.2938 18.8512 108.532C19.9223 120.306 22.1716 122.981 33.6323 125.978C46.8068 129.51 77.5471 128.761 89.0079 124.801C96.7197 122.018 98.2193 119.877 99.0761 110.459C100.254 98.4711 102.718 91.6211 110.108 80.4899C117.178 69.8938 118.356 66.1477 117.606 57.7993C115.999 41.6376 97.3624 33.3961 81.4031 41.6376L75.1907 44.8485L74.441 38.9618C73.7983 33.8243 73.1557 32.5399 68.9784 28.5797C63.1945 23.0141 62.9803 20.3383 68.0144 17.2344C71.1206 15.3079 71.7632 14.2376 71.7632 11.2407C71.7632 7.81568 71.549 7.60162 68.1215 7.60162C65.0154 7.60162 64.4798 7.17349 63.6229 4.06959C62.7661 1.28677 62.0163 0.53756 59.2314 0.323494C56.2324 0.00239563 55.8039 0.430527 54.6257 3.7485ZM33.7394 47.2032C44.2361 52.2336 51.6267 62.1876 53.0191 72.8907C54.1973 81.4532 54.5186 82.3094 57.3035 82.9516C61.695 84.0219 64.2656 81.9883 64.2656 77.279C64.2656 61.9735 79.7964 45.0626 93.7207 45.0626C104.003 45.0626 110.323 50.7352 110.323 59.9399C110.323 67.7532 101.647 82.3094 93.7207 87.768C90.6145 89.8016 88.6865 90.2297 82.3671 90.2297C78.1898 90.1227 71.2277 89.5876 66.8362 88.9454C61.2665 88.0891 56.6608 88.0891 51.0911 88.8383C43.0579 90.0157 36.31 90.4438 29.9906 90.1227C26.8844 90.0157 25.1707 88.8383 19.8152 83.2727C8.67582 71.6063 4.81988 59.7258 9.5327 51.9126C13.6029 45.2766 25.0636 43.029 33.7394 47.2032ZM83.4382 107.569C85.4732 108.211 87.2941 109.281 87.5083 110.031C88.4723 112.813 84.0808 113.348 71.4419 112.278C62.8732 111.529 54.9471 111.529 46.3783 112.278C34.1679 113.348 29.9906 112.813 29.9906 110.245C29.9906 108.318 35.7745 106.927 46.5925 106.177C59.4457 105.214 78.404 105.963 83.4382 107.569Z" fill="black"/>
</svg>
