<svg width="118" height="129" viewBox="0 0 118 129" fill="none" xmlns="http://www.w3.org/2000/svg">
<path d="M54.9285 4.32656C53.6432 7.32344 52.6792 8.07266 49.8944 8.39375C46.7882 8.71484 46.3598 9.14297 46.0384 12.1398C45.7171 15.2438 46.1455 15.7789 50.0015 17.8125C55.0356 20.2742 55.9996 24.3414 52.2508 26.375C47.9664 28.6227 43.682 36.0078 43.682 41.0383C43.682 45.3195 42.5038 46.925 41.1114 44.6773C39.5048 42.2156 30.5076 39.2188 24.5095 39.2188C11.4421 39.2188 2.33781 46.3898 0.40984 58.0563C-0.875473 65.2274 0.624059 69.6156 8.33593 81.4961C15.8336 93.0555 17.3331 97.0156 18.9398 110.502C19.4753 114.676 20.4393 119.064 21.082 120.241C22.6886 123.452 30.1862 126.556 39.6119 128.055C50.8584 129.874 78.4926 128.911 86.4187 126.449C95.2016 123.773 97.7723 120.563 98.6291 111.465C99.8073 99.7984 102.057 93.1625 107.841 84.3859C115.017 73.3617 117.588 67.475 117.588 61.4813C117.588 55.0594 116.195 51.3133 111.911 46.925C103.663 38.2555 91.8813 36.3289 81.1703 42.0016C77.957 43.7141 74.958 45.2125 74.5295 45.4266C73.994 45.6406 73.6727 43.0719 73.6727 39.7539C73.6727 34.0813 73.4584 33.5461 68.8527 29.1578C62.9617 23.3781 62.7475 20.9164 67.7816 17.8125C70.8878 15.8859 71.5305 14.8156 71.5305 11.8188C71.5305 8.39375 71.3162 8.17969 67.8887 8.17969C64.6755 8.17969 64.0328 7.75156 62.9617 4.43359C61.9977 1.54375 61.1409 0.6875 59.1058 0.6875C57.0707 0.6875 55.9996 1.54375 54.9285 4.32656ZM62.3191 32.9039C65.4252 34.2953 67.2461 38.7906 67.2461 44.6773C67.2461 48.7445 61.3551 61.6953 59.2129 62.4445C58.5702 62.6586 56.5352 59.9828 54.6072 56.4508C49.3588 46.818 49.8944 35.1516 55.7854 32.7969C58.9987 31.5125 59.2129 31.5125 62.3191 32.9039ZM33.3995 48.3164C44.0034 53.3469 53.9645 67.1539 54.6072 77.75L54.9285 82.5664L49.0375 83.7438C45.8242 84.3859 38.0052 85.2422 31.6858 85.6703L20.118 86.4195L15.1909 79.6766C6.8364 68.3313 5.33687 62.1234 9.40703 54.3102C11.2279 50.6711 13.4772 48.9586 20.118 46.2828C22.6886 45.3195 29.1152 46.2828 33.3995 48.3164ZM101.093 47.6742C106.341 50.0289 109.769 54.5242 110.733 60.3039C111.589 65.5484 109.661 70.3649 103.021 79.3555L97.9865 86.2055L91.4528 85.7774C87.8111 85.4563 81.2774 85.0281 76.7788 84.707C72.2802 84.493 67.2461 83.7438 65.6395 83.1016C62.8546 82.0313 62.7475 81.6031 63.283 77.1078C64.0328 70.1508 69.7096 59.2336 75.0651 54.6313C80.6348 49.8148 89.2035 45.6406 93.4879 45.6406C95.3088 45.6406 98.6291 46.6039 101.093 47.6742ZM77.7428 92.1992C86.2045 92.9484 93.3808 93.9117 93.7021 94.1258C94.2377 94.6609 92.3097 108.682 91.667 109.324C91.4528 109.538 88.0253 108.896 83.848 107.933C70.6736 104.936 40.683 105.685 28.1512 109.324C26.2232 109.966 25.9019 109.217 24.7237 102.153C24.081 97.8719 23.6526 94.2328 23.7597 94.0188C23.9739 93.9117 29.8649 93.2695 36.827 92.6274C43.7891 91.9852 51.501 91.0219 53.8574 90.5938C56.2138 90.0586 59.1058 89.9516 60.284 90.1656C61.4622 90.4867 69.3883 91.343 77.7428 92.1992ZM81.4916 115.318C85.3476 116.281 86.74 118.636 84.3836 120.027C81.9201 121.526 55.9996 122.596 45.9313 121.633C31.6858 120.241 29.008 118.957 34.2564 116.174C39.1834 113.498 71.8518 112.963 81.4916 115.318Z" fill="white"/>
</svg>
