<svg width="118" height="115" viewBox="0 0 118 115" fill="none" xmlns="http://www.w3.org/2000/svg">
<path d="M48.5961 4.19766L45.1686 8.37189L39.3847 5.69611C36.1714 4.19766 31.2444 2.91329 28.5666 2.91329L23.6396 2.69923L23.8538 10.1914C24.0681 19.182 22.7827 23.3563 12.1789 45.9399C7.89454 55.0375 3.28883 65.6336 2.00352 69.7008C-0.352887 76.6578 -0.459997 76.9789 1.46797 79.9758C4.14571 84.4711 8.10875 87.2539 13.8927 88.8594C17.3202 89.8227 19.3552 89.9297 20.6406 89.1805C21.9259 88.3242 22.5685 88.6453 23.4254 90.3578C24.0681 91.6422 25.5676 92.7125 26.8529 92.9266C28.6738 93.2477 30.2804 91.6422 34.5648 85.3274C37.4567 80.9391 41.4198 76.1227 43.3477 74.5172C47.2037 71.1992 55.0227 67.025 55.7724 67.7742C56.8435 68.8445 51.7023 78.4774 45.597 87.0399C42.0624 91.8563 38.5278 97.2078 37.5638 99.0274C36.2785 101.596 33.6008 111.871 33.6008 114.012C33.6008 114.333 52.1307 114.547 74.7308 114.547H115.754L116.503 109.623C118.86 91.7492 114.361 62.9578 106.756 47.6524C97.3309 28.9219 83.6209 16.8274 69.5895 15.1149C64.5554 14.4727 64.2341 14.2586 62.8416 9.97736C61.3421 5.48204 56.2009 0.0234451 53.416 0.0234451C52.5591 0.0234451 50.417 1.95001 48.5961 4.19766ZM70.8749 25.1758C82.0142 28.4938 97.0095 46.2609 102.365 62.6367C105.578 72.3766 107.506 84.5781 107.506 95.1742C107.506 102.88 105.9 106.52 103.008 105.449C100.758 104.593 100.009 101.596 100.009 92.4985C100.009 82.4375 97.438 67.7742 94.2247 59.9609C88.4408 45.8328 76.6588 33.0961 65.7336 29.243C60.5924 27.4234 58.9857 25.3899 61.7706 24.3195C63.9127 23.3563 65.0909 23.4633 70.8749 25.1758ZM39.706 33.9524C40.0273 34.7016 38.3136 37.2703 36.0643 39.625C32.9581 43.05 31.1373 44.1203 28.2453 44.2274C22.7827 44.5484 22.5685 40.8024 27.6027 35.7719C30.8159 32.561 31.9941 32.0258 35.3145 32.3469C37.5638 32.561 39.4918 33.2031 39.706 33.9524ZM12.1789 72.5906C12.1789 75.2664 9.92961 77.9422 7.35899 78.3703C5.64524 78.5844 5.32391 78.1563 5.53813 76.0156C5.96657 71.6274 12.1789 68.4164 12.1789 72.5906Z" fill="black"/>
</svg>
