<svg width="118" height="116" viewBox="0 0 118 116" fill="none" xmlns="http://www.w3.org/2000/svg">
<path d="M49.971 3.81252C48.4715 5.52502 47.0791 7.45159 46.8648 8.09377C46.6506 8.84299 44.4013 8.30784 40.8667 6.48831C37.8676 4.98987 32.8335 3.3844 29.8344 3.06331L24.3719 2.42112L25.1216 8.95002C25.9785 16.4422 24.479 22.8641 18.8022 35.0657C8.7339 57.0071 4.34241 66.961 2.73577 71.9914L0.8078 77.6641L3.91397 81.9453C7.34147 86.7617 12.9112 89.8657 16.7671 89.1164C18.588 88.7953 20.1946 89.4375 22.0155 91.2571C26.1927 95.4313 29.6202 94.2539 34.4401 87.2969C36.6894 84.086 40.3312 79.5907 42.5805 77.343C46.6506 73.0617 55.3265 67.3891 56.2905 68.3524C57.5758 69.6367 54.7909 75.4164 47.6146 86.2266C39.7956 97.786 35.297 107.526 35.297 112.449V115.125H75.8915H116.486L117.236 107.312C118.2 97.2508 116.272 76.3797 113.487 65.3555C109.417 49.6219 100.634 34.4235 90.2441 25.2188C83.3891 19.225 78.0337 16.5492 71.0716 15.9071C65.7161 15.3719 65.2877 15.0508 64.1094 11.6258C62.6099 6.91643 57.0402 0.601587 54.5767 0.601587C53.5056 0.601587 51.4705 1.99299 49.971 3.81252ZM35.5112 10.8766L38.9387 12.5891L36.261 14.0875C32.298 16.3352 31.0126 15.9071 31.0126 12.375C31.0126 8.62893 31.1198 8.62893 35.5112 10.8766ZM56.7189 14.3016C59.9322 24.5766 59.3966 24.1485 67.7512 24.1485C73.428 24.1485 76.1057 24.6836 78.7834 26.3961C84.6745 30.0352 94.4214 41.5946 99.2413 50.4782C106.203 63.536 108.239 72.2055 108.881 91.2571L109.524 107.526L77.1768 107.847C51.4705 108.061 44.9369 107.847 44.9369 106.777C44.9369 104.743 48.8999 97.3578 54.4696 88.9024C61.9673 77.6641 64.2166 71.8844 64.2166 63.75C64.2166 61.0742 65.3948 54.9735 66.7872 50.2641C69.572 40.9524 69.4649 38.5977 66.2516 40.2032C63.5739 41.7016 59.2895 49.3008 57.79 55.1875C56.7189 59.4688 55.9691 60.4321 51.6848 62.6797C45.1511 66.1047 36.9037 73.811 31.5482 81.3032C26.9425 87.618 24.9074 88.3672 25.443 83.5508C25.7643 80.768 25.5501 80.661 22.7652 81.3032C14.6249 83.3367 13.3396 83.2297 10.3405 80.2328C7.98413 77.9852 7.44858 76.5938 7.98413 74.5602C8.30546 72.9547 13.1254 62.3586 18.588 50.9063C24.0505 39.4539 29.1918 28.5367 29.9416 26.6102C31.0126 23.8274 32.4051 22.7571 37.1179 20.9375C46.5435 17.4055 51.3634 14.6227 52.6487 11.8399C54.1483 8.5219 55.1123 9.16409 56.7189 14.3016Z" fill="white"/>
<path d="M31.334 34.8516C27.7994 36.9922 25.9785 40.9524 27.1567 43.9493C28.0136 46.3039 30.6913 45.9829 36.0468 42.8789C40.4383 40.2032 42.7947 36.35 41.188 33.8883C40.1169 32.0688 35.0828 32.4969 31.334 34.8516Z" fill="white"/>
<path d="M12.2684 70.8141C9.91201 73.2758 10.6618 77.0219 13.5537 77.45C16.767 77.8781 19.2305 73.2758 17.0883 70.707C15.3746 68.6734 14.4106 68.6734 12.2684 70.8141Z" fill="white"/>
</svg>
