<svg width="85" height="115" viewBox="0 0 85 115" fill="none" xmlns="http://www.w3.org/2000/svg">
<path d="M33.3021 2.2711C26.0187 6.01719 23.5552 13.0813 26.4471 21.3227C27.4111 23.8914 28.0537 26.1391 27.9466 26.2461C27.7324 26.3531 25.8045 27.4234 23.6623 28.8148C16.4859 33.0961 13.2727 44.4414 16.8073 52.7899C17.557 54.7164 19.8063 57.6063 21.7343 59.3188C24.5191 61.6734 24.9476 62.4227 23.7694 63.1719C18.4139 66.1688 10.702 73.0188 7.91718 77.0859C2.88304 84.5781 1.16929 90.4649 0.633745 102.988L-0.00891113 114.547H42.0851H84.1791L83.5364 102.988C83.108 95.1742 82.2511 89.6086 80.6445 85.4344C77.9667 78.2633 70.6833 69.7008 63.9354 65.7406C61.3648 64.2422 59.2226 62.7438 59.2226 62.4227C59.2226 62.1016 60.5079 60.9242 62.0074 59.6399C65.3278 57.0711 68.7553 50.007 68.8624 45.6188C68.8624 39.9461 66.3989 34.2734 62.4359 30.6344C60.1866 28.7078 57.8302 26.8883 57.0804 26.5672C55.9022 26.2461 55.9022 25.3898 56.8662 22.5C57.6159 20.5734 58.1515 16.9344 58.1515 14.3656C58.1515 3.23438 44.3344 -3.61562 33.3021 2.2711Z" fill="black"/>
</svg>
