<svg width="84" height="116" viewBox="0 0 84 116" fill="none" xmlns="http://www.w3.org/2000/svg">
<path d="M36.0686 1.6719C27.8212 4.13362 23.6439 12.6961 26.3216 21.5797C27.7141 26.1821 27.7141 26.8242 26.2145 27.6805C22.0373 30.0352 17.2173 35.2797 16.0391 38.8117C13.4685 46.518 16.7889 57.5422 22.787 60.9672L26.1074 63.0008L22.4657 64.8203C17.0031 67.7102 8.96991 75.2024 5.97085 80.2328C2.43624 86.2266 0.079834 96.8227 0.079834 106.777V115.125H41.9596H83.9465L83.3038 104.101C82.9825 98.1071 81.9114 90.7219 80.9474 87.725C78.3768 80.1258 72.4858 72.7407 64.881 67.6032L58.3473 63.2149L62.8459 58.9336C67.8801 54.1172 69.2725 49.6219 68.0943 41.8086C67.4516 36.9922 62.6317 30.6774 57.5976 27.8946C55.7767 26.9313 55.7767 26.5032 57.3834 21.7938C61.882 8.84299 49.9928 -2.39529 36.0686 1.6719ZM45.1729 8.09377C47.1009 8.09377 50.4212 12.375 50.4212 14.9438C50.4212 16.3352 49.4573 19.5461 48.3862 22.0078C47.208 24.5766 46.5653 27.2524 46.8866 28.0016C47.1009 28.7508 49.243 30.5703 51.5995 32.1758C57.1691 35.8149 60.0611 40.6313 60.0611 46.411C60.0611 51.2274 58.2402 53.6891 50.6355 59.7899C47.5293 62.2516 48.8146 64.8203 55.5625 69.4227C69.3796 78.9485 74.9493 87.4039 75.9133 100.141L76.4488 107.633H41.8525H7.25616L7.79171 100.141C8.75569 87.1899 13.5756 80.1258 28.9994 68.7805C35.2117 64.1782 35.6402 61.6094 30.606 57.6492C20.7519 50.05 21.3946 39.668 32.1055 32.0688C36.8184 28.6438 37.5681 25.7539 34.8904 20.9375C30.9273 13.9805 35.7473 5.84612 42.7094 7.66565C43.5662 7.87971 44.6373 8.09377 45.1729 8.09377Z" fill="white"/>
</svg>
