<svg width="136" height="126" viewBox="0 0 136 126" fill="none" xmlns="http://www.w3.org/2000/svg">
<path d="M61.4759 2.2469C57.7271 5.13674 57.0844 9.52502 59.3337 16.6961C61.7973 24.5094 61.6902 35.2125 59.2266 47.9492L57.4058 57.5821L54.9423 52.2305C49.801 40.8852 47.1233 31.0383 47.3375 24.4024C47.4446 20.8703 47.5517 16.6961 47.5517 15.0907C47.7659 8.13362 39.8398 3.21018 32.9848 6.10002C28.4862 7.91956 26.8796 10.1672 26.237 15.0907C25.8085 18.6227 26.1298 19.8 29.0218 23.011C33.8417 28.4696 34.4844 31.2524 34.4844 45.0594L34.3773 57.5821L30.2 52.9797C23.5592 45.5946 21.2028 39.8149 22.0597 32.6438C22.5952 27.6133 22.381 25.9008 20.5602 23.011C16.9184 17.1242 11.2416 15.9469 5.56484 19.8C-1.07594 24.2953 -0.754608 33.1789 6.10039 38.3164C9.09945 40.6711 9.635 41.8485 10.2777 47.4141C10.7061 50.8391 12.4198 59.0805 14.0265 65.5024C16.7042 75.8844 17.7753 78.1321 22.4881 84.0188C25.3801 87.7649 28.5934 92.3672 29.5573 94.2938C31.2711 97.6117 31.2711 98.0399 28.5934 105.318C23.9877 118.162 24.8445 119.66 38.2332 123.085C48.5157 125.654 86.8609 125.654 98.6429 123.085C111.282 120.302 112.888 117.198 107.747 104.997C106.141 101.144 105.284 97.5047 105.605 96.0063C105.926 94.7219 109.247 89.9055 112.781 85.3032C119.101 77.3828 119.422 76.6336 122.421 64.325C124.028 57.261 125.742 49.0196 126.063 45.9156C126.706 41.3133 127.348 40.136 130.24 38.3164C137.631 33.5 137.202 22.5828 129.49 18.9438C124.778 16.6961 120.922 17.5524 116.744 21.8336C113.638 24.9375 113.531 25.2586 114.281 31.7875C114.924 37.7813 114.602 39.2797 112.353 43.775C110.853 46.6649 107.961 50.9461 105.819 53.3008L102.07 57.5821L101.749 51.1602C100.999 34.5703 102.392 27.8274 107.105 23.4391C115.138 16.268 106.355 2.2469 96.0723 5.6719C89.6457 7.81252 88.5746 10.0602 88.8959 20.7633C89.1102 29.0047 88.7888 31.5735 86.004 39.9219C84.1831 45.2735 81.8267 51.3742 80.7556 53.5149L78.7205 57.368L77.0068 47.7352C74.7575 35.6406 74.6504 23.4391 76.7926 17.4453C79.149 10.8094 78.8277 6.42112 75.7215 3.10315C72.6153 -0.321854 65.439 -0.749977 61.4759 2.2469ZM71.7584 6.95628C73.5793 8.7758 73.3651 12.6289 71.4371 14.2344C67.367 17.5524 61.1546 11.3446 64.475 7.27737C66.0816 5.35081 69.9376 5.13674 71.7584 6.95628ZM41.1252 13.5922C43.5887 17.3383 41.1252 20.8703 36.5195 20.4422C33.4133 20.1211 32.8777 19.693 32.5564 16.9102C32.2351 14.8766 32.7706 13.3782 34.0559 12.4149C36.091 10.9164 39.8398 11.5586 41.1252 13.5922ZM102.392 12.4149C103.677 13.3782 104.213 14.8766 103.891 16.9102C103.677 19.4789 103.034 20.2281 100.571 20.4422C94.7869 21.0844 92.3234 15.8399 96.822 12.736C99.714 10.7024 100.035 10.7024 102.392 12.4149ZM14.9905 25.1516C16.8113 26.9711 16.5971 30.8242 14.6691 32.4297C12.527 34.2492 8.02836 32.9649 7.17148 30.2891C5.67195 25.5797 11.563 21.7266 14.9905 25.1516ZM128.098 25.5797C130.133 27.5063 130.24 28.5766 128.741 31.4664C126.598 35.4266 120.172 33.393 120.172 28.6836C120.172 24.1883 124.885 22.3688 128.098 25.5797ZM98.2144 77.4899C101.214 78.5602 102.606 79.7375 102.82 81.236L103.141 83.5907L68.3309 83.4836C35.127 83.3766 33.4133 83.2696 33.4133 81.45C33.4133 76.9547 45.0882 75.2422 72.5082 75.6703C86.968 75.9914 95.3225 76.5266 98.2144 77.4899ZM93.823 100.823C96.0723 101.358 98.75 102.642 99.714 103.498C101.106 104.997 101.106 105.425 99.8211 106.709C98.4287 107.994 95.5367 108.101 82.6836 107.459C74.1148 106.923 60.7262 106.923 52.8001 107.459C38.7687 108.422 35.5555 107.887 35.5555 105.104C35.5555 103.391 41.6607 101.037 48.5157 99.9664C56.656 98.6821 87.8248 99.3242 93.823 100.823Z" fill="black"/>
</svg>
