<svg width="135" height="126" viewBox="0 0 135 126" fill="none" xmlns="http://www.w3.org/2000/svg">
<path d="M59.9218 4.00235C56.3872 7.64141 56.0659 10.4242 58.5294 17.0602C60.7787 23.1609 60.7787 38.2523 58.4223 48.9555C57.5654 53.3438 56.6015 57.0899 56.3872 57.3039C55.8517 57.8391 49.4251 41.1422 47.7114 34.3992C46.5332 30.0109 46.2118 25.9438 46.7474 20.5922C47.39 13.6352 47.1758 12.8859 44.6052 9.78204C37.8573 1.7547 25.754 5.92891 25.754 16.418C25.754 20.1641 26.3966 21.8766 29.0743 24.8734C30.7881 26.907 32.7161 30.225 33.3587 32.1516C34.4298 36.1117 34.644 47.5641 33.68 53.6649L32.9303 57.732L29.9312 54.2C22.862 46.1727 21.0411 41.6773 21.2554 33.757C21.4696 25.1945 19.7558 21.0203 15.1501 19.0938C8.18801 16.3109 0.047699 21.8766 0.047699 29.4758C0.047699 32.4727 0.904574 34.1852 4.22497 37.5031C7.65247 40.8211 8.72356 42.9617 9.68754 47.7781C10.3302 51.0961 12.1511 59.5516 13.6506 66.6156C16.2212 78.068 16.971 79.6734 20.934 84.2758C30.681 95.193 31.3236 97.2266 28.0032 104.933C25.0042 111.89 24.2544 117.67 26.0753 120.131C28.3246 123.235 39.2497 125.055 60.5645 125.804C80.9153 126.446 99.231 125.055 105.765 122.379C109.406 120.88 109.835 119.703 109.299 112.746C109.192 111.034 108.121 107.823 107.05 105.575C103.301 98.1899 104.051 96.0492 114.226 83.5266C118.832 77.9609 121.188 70.2547 124.83 49.7047C126.008 42.9617 126.651 41.5703 130.721 37.5031C134.898 33.3289 135.22 32.6867 134.684 28.6195C133.613 20.3781 125.366 15.6688 119.153 19.7359C114.333 22.8398 113.584 24.5523 113.691 32.5797C113.905 41.0352 112.084 45.5305 105.765 53.1297C102.23 57.3039 102.016 57.4109 101.373 55.1633C100.302 51.0961 100.623 35.6836 101.909 31.8305C102.658 29.7969 104.586 26.2648 106.193 24.0172C110.263 18.4516 110.263 13.7422 106.3 9.35391C103.73 6.5711 102.444 5.92891 98.5883 5.92891C94.6253 5.92891 93.4471 6.46407 90.7694 9.46095C87.7703 12.8859 87.6632 13.3141 88.3058 20.1641C89.0556 28.5125 86.6992 39.3227 81.6651 50.775C78.0233 58.9094 78.1304 58.9094 75.5598 44.3531C73.4176 31.9375 73.5247 28.6195 76.2025 18.5586C78.0233 11.6016 78.1304 9.67501 77.0594 7.10626C74.1674 0.149226 65.3844 -1.45624 59.9218 4.00235ZM71.5968 10.1031C72.0252 14.1703 69.6688 16.418 65.92 15.4547C63.7778 14.9195 63.2422 14.1703 63.2422 11.1734C63.2422 6.78516 63.992 6.03595 68.0622 6.46407C70.7399 6.78516 71.2754 7.32032 71.5968 10.1031ZM39.0355 12.993C40.3208 13.9563 40.8564 15.4547 40.535 17.4883C40.3208 20.1641 39.6782 20.8063 37.0004 21.0203C34.9654 21.3414 33.4658 20.8063 32.5018 19.5219C30.681 16.9531 30.681 16.3109 33.2516 13.7422C35.8222 11.1734 36.4649 11.1734 39.0355 12.993ZM101.159 12.993C102.444 13.9563 102.98 15.4547 102.658 17.4883C102.337 20.3781 101.909 20.6992 98.6954 20.6992C93.9826 20.6992 92.1618 16.9531 95.3751 13.7422C97.8386 11.2805 98.5883 11.1734 101.159 12.993ZM13.7577 25.7297C15.8999 27.8703 15.3643 32.7938 12.9008 33.543C8.93778 34.8273 6.47426 33.2219 6.47426 29.2617C6.47426 27.3352 7.11692 25.4086 7.86668 25.1945C10.2231 24.2313 12.4724 24.4453 13.7577 25.7297ZM127.294 25.7297C130.186 28.6195 128.043 34.0781 124.187 34.0781C121.938 34.0781 118.939 31.2953 118.939 29.2617C118.939 25.5156 124.616 23.0539 127.294 25.7297ZM42.8915 41.2492C42.8915 43.818 49.318 56.2336 53.2811 61.3711L57.137 66.5086L59.065 63.9399C61.3143 61.05 66.4555 45.9586 66.4555 42.2125C66.4555 36.4328 68.0622 39.0016 70.3115 48.3133C72.6679 58.1602 76.5238 66.7227 78.2376 65.6524C80.2726 64.368 87.1276 53.0227 90.5551 45.3164L94.304 36.7539V43.7109C94.304 50.9891 96.7675 67.9 97.9457 69.0774C98.267 69.3984 102.98 65.3313 108.335 59.8727C113.691 54.5211 117.761 50.9891 117.44 51.9524C117.118 53.0227 116.047 57.518 115.083 61.9063C113.477 69.5055 111.013 75.8203 109.728 75.8203C109.513 75.8203 107.264 74.75 104.801 73.5727C88.7343 65.3313 49.5322 65.2242 31.4308 73.2516C27.0393 75.1781 25.1113 75.4992 24.0402 74.643C23.2904 74.1078 21.6838 69.0774 20.3985 63.7258C19.2203 58.2672 17.935 53.1297 17.6136 52.0594C17.2923 51.0961 21.4696 54.7352 26.825 60.0867C32.1805 65.3313 36.7862 69.3984 37.1075 69.0774C38.2858 67.9 40.7493 50.9891 40.7493 43.7109C40.7493 38.7875 41.0706 37.182 41.8204 38.3594C42.3559 39.2156 42.8915 40.607 42.8915 41.2492ZM77.1665 74.75C83.9144 75.3922 91.412 76.3555 93.7684 76.9977C97.8386 78.068 101.802 80.6367 101.802 82.2422C101.802 82.5633 86.3779 82.8844 67.5266 82.9914C48.6754 82.9914 33.2516 82.6703 33.2516 82.1352C33.2516 80.7438 37.8573 77.9609 42.3559 76.6766C44.7123 76.0344 50.4962 75.1781 55.209 74.75C59.9218 74.3219 63.992 73.8938 64.3133 73.8938C64.6347 73.7867 70.4186 74.2149 77.1665 74.75ZM91.3049 90.4836C98.4812 91.1258 98.5883 91.1258 97.7315 93.9086C97.303 95.407 96.9817 98.1899 97.0888 99.9024V103.22L91.7333 102.471C88.7343 102.043 77.8091 101.615 67.5266 101.615C57.2441 101.615 46.319 102.043 43.3199 102.471L37.9644 103.22V99.9024C38.0715 98.1899 37.6431 95.407 37.2147 93.8016C36.4649 91.0188 36.572 90.9117 41.499 90.4836C50.7104 89.8414 84.0215 89.7344 91.3049 90.4836ZM95.0537 110.07C99.3381 111.569 100.302 113.923 97.303 115.529C91.7333 118.526 51.3531 119.061 40.535 116.385C36.3578 115.315 34.9654 112.211 37.7502 110.498C41.8204 107.93 88.1987 107.609 95.0537 110.07Z" fill="white"/>
</svg>
