<svg width="98" height="114" viewBox="0 0 98 114" fill="none" xmlns="http://www.w3.org/2000/svg">
<path d="M7.58569 3.09081C5.01507 5.76659 4.69374 6.83691 4.69374 14.115V22.1424L12.7269 30.0627L20.7601 37.983V56.8205V75.551L10.5848 85.7189L0.409364 95.8869V102.951C0.409364 114.296 -3.12525 113.547 49.3584 113.547C101.521 113.547 97.8789 114.403 97.8789 102.737V95.8869L88.2391 86.2541L78.5992 76.6213V57.3557V37.983L86.0969 30.5978L93.5945 23.2127V14.008C93.5945 5.76659 93.3803 4.48222 91.131 2.44862C89.0959 0.522057 87.3822 0.0939331 81.1698 0.0939331C73.1366 0.0939331 71.1016 1.05722 71.1016 5.1244C71.1016 7.26503 70.566 7.58613 67.3527 7.58613C64.1395 7.58613 63.6039 7.26503 63.6039 5.1244C63.6039 0.73613 61.783 0.0939331 49.6797 0.0939331C37.5763 0.0939331 35.7555 0.73613 35.7555 5.1244C35.7555 7.26503 35.2199 7.58613 32.0066 7.58613C29.1147 7.58613 28.2578 7.158 28.2578 5.65956C28.2578 1.80644 24.8303 0.0939331 17.4398 0.0939331C11.2274 0.0939331 10.1563 0.415024 7.58569 3.09081ZM71.1016 40.2307V43.9768L49.4655 43.7627L27.7223 43.4416L27.4009 39.9096L27.0796 36.4846H49.037H71.1016V40.2307ZM71.1016 75.0158V78.2268H49.1441H27.1867V75.0158V71.8049H49.1441H71.1016V75.0158Z" fill="black"/>
</svg>
