<svg width="98" height="116" viewBox="0 0 98 116" fill="none" xmlns="http://www.w3.org/2000/svg">
<path d="M5.13961 3.59845C2.46188 6.38126 2.24766 7.34454 2.24766 15.2649V23.9344L10.7093 31.3195L19.278 38.5977V58.3984L19.3852 78.1992L9.74531 87.832L0.105469 97.4649V104.957C0.105469 109.452 0.641016 113.091 1.39078 113.841C2.35477 114.804 14.2439 115.125 48.3047 115.125C101.11 115.125 97.575 115.874 97.575 104.85V98.5352L87.3996 88.1531L77.2242 77.7711V58.6125V39.3469L85.793 32.0688L94.3617 24.6836V15.4789C94.3617 6.91642 94.1475 6.1672 91.3627 3.49142C88.6849 0.922665 87.6138 0.601572 80.3304 0.601572C71.3332 0.601572 67.2631 2.7422 68.3341 7.02345C68.8697 8.84298 68.4413 9.16407 65.5493 9.16407C62.7645 9.16407 62.2289 8.73595 62.2289 6.70235C62.2289 1.88595 59.2298 0.601572 48.0905 0.601572C37.0582 0.601572 34.3805 1.88595 34.3805 6.80938C34.3805 8.62892 33.7378 9.16407 31.7027 9.16407C29.5605 9.16407 29.025 8.62892 29.025 6.70235C29.025 2.10001 25.9188 0.601572 16.6003 0.601572C8.56711 0.601572 7.81734 0.815634 5.13961 3.59845ZM22.5984 11.6258C22.5984 15.4789 24.6335 16.6563 31.2743 16.6563C39.4146 16.6563 40.807 16.0141 40.807 12.268V9.16407H48.3047C55.3739 9.16407 55.8023 9.2711 55.8023 11.6258C55.8023 15.5859 57.8374 16.6563 65.6564 16.6563C71.8688 16.6563 73.047 16.3352 74.0109 14.4086C74.7607 13.2313 74.9749 11.5188 74.6536 10.6625C74.2252 9.48517 75.4034 9.16407 80.3304 9.16407C87.5067 9.16407 87.9352 9.69923 87.9352 17.5125C87.9352 22.3289 87.7209 22.757 81.5086 27.5734L75.1891 32.7109H48.626H22.0629L15.6363 27.5734C9.31688 22.4359 9.20977 22.2219 9.20977 17.0844C9.31688 14.1945 9.6382 11.1977 10.1738 10.4484C10.6022 9.69923 13.2799 9.16407 16.8145 9.16407C22.17 9.16407 22.5984 9.37813 22.5984 11.6258ZM70.7977 57.3281V74.4531L48.7331 74.2391L26.7757 73.918L26.5615 57.007L26.3473 40.2031H48.626H70.7977V57.3281ZM77.974 86.4406C81.0802 89.5445 83.6508 92.3274 83.6508 92.6485C83.6508 92.9695 67.9057 93.0766 48.626 92.8625L13.6013 92.5414L19.3852 86.7617L25.1691 80.875H48.7331H72.2972L77.974 86.4406ZM91.1484 103.887V107.633H48.8402H6.53203V103.887V100.141H48.8402H91.1484V103.887Z" fill="white"/>
</svg>
